<svg xmlns="http://www.w3.org/2000/svg" xmlns:xlink="http://www.w3.org/1999/xlink" width="1080" zoomAndPan="magnify" viewBox="0 0 810 809.999993" height="1080" preserveAspectRatio="xMidYMid meet" version="1.0"><defs><clipPath id="777b557216"><path d="M 373 319.707031 L 516 319.707031 L 516 415 L 373 415 Z M 373 319.707031 " clip-rule="nonzero"/></clipPath><clipPath id="8dc1a28d66"><path d="M 214.195312 359 L 490 359 L 490 438.957031 L 214.195312 438.957031 Z M 214.195312 359 " clip-rule="nonzero"/></clipPath><clipPath id="b3bcde2e4b"><path d="M 214.195312 358 L 490 358 L 490 438.957031 L 214.195312 438.957031 Z M 214.195312 358 " clip-rule="nonzero"/></clipPath><clipPath id="8af1b1debf"><path d="M 512 319.707031 L 544.945312 319.707031 L 544.945312 353 L 512 353 Z M 512 319.707031 " clip-rule="nonzero"/></clipPath></defs><g clip-path="url(#777b557216)"><path fill="#000000" d="M 429.296875 412.589844 C 429.078125 412.589844 428.855469 412.589844 428.632812 412.699219 C 428.632812 411.925781 428.523438 411.261719 428.523438 410.488281 C 428.632812 410.488281 428.855469 410.488281 428.964844 410.488281 C 460.566406 406.289062 488.839844 375.90625 513.234375 319.886719 L 515.230469 320.769531 C 490.613281 377.453125 461.785156 408.390625 429.296875 412.589844 Z M 483.851562 412.476562 L 373.304688 412.476562 L 373.304688 414.355469 L 483.851562 414.355469 Z M 483.851562 412.476562 " fill-opacity="0.5" fill-rule="nonzero"/></g><path fill="#e13b76" d="M 428.632812 410.488281 C 428.632812 411.261719 428.742188 411.925781 428.742188 412.699219 C 403.574219 415.792969 382.175781 402.421875 361.550781 389.496094 C 340.484375 376.347656 318.640625 362.648438 292.917969 366.625 C 265.199219 370.824219 240.914062 393.585938 220.625 434.246094 L 218.628906 433.25 C 239.253906 391.925781 264.089844 368.835938 292.472656 364.414062 C 319.085938 360.328125 341.261719 374.25 362.660156 387.617188 C 383.0625 400.324219 404.128906 413.472656 428.632812 410.488281 Z M 428.632812 410.488281 " fill-opacity="1" fill-rule="nonzero"/><g clip-path="url(#8dc1a28d66)"><path fill="#fffcf0" d="M 224.507812 428.609375 L 214.75 428.609375 L 214.75 438.332031 L 224.507812 438.332031 Z M 292.253906 359.332031 C 289.371094 359.332031 286.929688 361.652344 286.929688 364.636719 C 286.929688 367.507812 289.257812 369.9375 292.253906 369.9375 C 295.136719 369.9375 297.574219 367.617188 297.574219 364.636719 C 297.464844 361.652344 295.136719 359.332031 292.253906 359.332031 Z M 483.851562 407.394531 C 480.96875 407.394531 478.527344 409.714844 478.527344 412.699219 C 478.527344 415.570312 480.855469 418.003906 483.851562 418.003906 C 486.734375 418.003906 489.171875 415.683594 489.171875 412.699219 C 489.171875 409.714844 486.734375 407.394531 483.851562 407.394531 Z M 373.195312 407.285156 C 370.3125 407.285156 367.871094 409.605469 367.871094 412.589844 C 367.871094 415.570312 370.199219 417.890625 373.195312 417.890625 C 376.1875 417.890625 378.515625 415.570312 378.515625 412.589844 C 378.515625 409.605469 376.078125 407.285156 373.195312 407.285156 Z M 424.417969 416.789062 L 433.066406 416.789062 L 433.066406 408.167969 L 424.417969 408.167969 Z M 424.417969 416.789062 " fill-opacity="1" fill-rule="nonzero"/></g><g clip-path="url(#b3bcde2e4b)"><path fill="#5548e4" d="M 225.058594 438.886719 L 214.195312 438.886719 L 214.195312 428.058594 L 225.058594 428.058594 Z M 215.304688 437.78125 L 223.953125 437.78125 L 223.953125 429.164062 L 215.304688 429.164062 Z M 483.851562 418.445312 C 480.636719 418.445312 477.972656 415.792969 477.972656 412.589844 C 477.972656 409.382812 480.636719 406.734375 483.851562 406.734375 C 487.066406 406.734375 489.726562 409.382812 489.726562 412.589844 C 489.726562 415.792969 487.066406 418.445312 483.851562 418.445312 Z M 483.851562 407.949219 C 481.1875 407.949219 479.082031 410.046875 479.082031 412.699219 C 479.082031 415.351562 481.1875 417.449219 483.851562 417.449219 C 486.511719 417.449219 488.617188 415.351562 488.617188 412.699219 C 488.617188 410.046875 486.402344 407.949219 483.851562 407.949219 Z M 373.195312 418.335938 C 369.976562 418.335938 367.316406 415.683594 367.316406 412.476562 C 367.316406 409.273438 369.976562 406.621094 373.195312 406.621094 C 376.410156 406.621094 379.070312 409.273438 379.070312 412.476562 C 379.070312 415.683594 376.410156 418.335938 373.195312 418.335938 Z M 373.195312 407.835938 C 370.53125 407.835938 368.425781 409.9375 368.425781 412.589844 C 368.425781 415.242188 370.53125 417.339844 373.195312 417.339844 C 375.855469 417.339844 377.960938 415.242188 377.960938 412.589844 C 377.960938 409.9375 375.855469 407.835938 373.195312 407.835938 Z M 292.253906 370.382812 C 289.039062 370.382812 286.375 367.730469 286.375 364.523438 C 286.375 361.320312 289.039062 358.667969 292.253906 358.667969 C 295.46875 358.667969 298.128906 361.320312 298.128906 364.523438 C 298.019531 367.730469 295.46875 370.382812 292.253906 370.382812 Z M 292.253906 359.882812 C 289.589844 359.882812 287.484375 361.984375 287.484375 364.636719 C 287.484375 367.289062 289.589844 369.386719 292.253906 369.386719 C 294.914062 369.386719 297.019531 367.289062 297.019531 364.636719 C 297.019531 361.984375 294.804688 359.882812 292.253906 359.882812 Z M 433.511719 417.339844 L 423.753906 417.339844 L 423.753906 407.617188 L 433.511719 407.617188 Z M 424.972656 416.234375 L 432.515625 416.234375 L 432.515625 408.722656 L 424.972656 408.722656 Z M 424.972656 416.234375 " fill-opacity="1" fill-rule="nonzero"/></g><g clip-path="url(#8af1b1debf)"><path fill="#000000" d="M 533.300781 327.511719 C 535.410156 331.269531 537.40625 335.023438 539.511719 338.78125 C 536.851562 341.324219 534.078125 343.753906 531.417969 346.292969 C 527.867188 344.304688 524.320312 342.316406 520.882812 340.328125 C 518.222656 333.808594 515.5625 327.402344 512.902344 320.882812 C 516.671875 324.859375 520.328125 328.726562 524.097656 332.703125 C 524.097656 333.476562 524.097656 334.363281 524.097656 335.136719 C 525.761719 335.246094 527.203125 335.246094 528.867188 335.355469 C 528.867188 333.917969 528.867188 332.59375 528.867188 331.15625 C 527.757812 331.046875 526.761719 330.9375 525.652344 330.824219 C 521.882812 327.179688 518.113281 323.421875 514.34375 319.777344 C 520.660156 322.429688 526.980469 324.96875 533.300781 327.511719 Z M 532.527344 348.28125 C 533.746094 349.609375 535.074219 350.824219 536.296875 352.148438 C 539.179688 349.277344 542.0625 346.515625 544.945312 343.644531 C 543.726562 342.425781 542.503906 341.210938 541.285156 340.105469 C 538.292969 342.757812 535.410156 345.519531 532.527344 348.28125 Z M 532.527344 348.28125 " fill-opacity="1" fill-rule="nonzero"/></g></svg>