<svg xmlns="http://www.w3.org/2000/svg" xmlns:xlink="http://www.w3.org/1999/xlink" width="1080" zoomAndPan="magnify" viewBox="0 0 810 809.999993" height="1080" preserveAspectRatio="xMidYMid meet" version="1.0"><defs><filter x="0%" y="0%" width="100%" height="100%" id="9bba22624f"><feColorMatrix values="0 0 0 0 1 0 0 0 0 1 0 0 0 0 1 0 0 0 1 0" color-interpolation-filters="sRGB"/></filter><clipPath id="36bcd83833"><path d="M 333.417969 68.949219 L 460.167969 68.949219 L 460.167969 740.949219 L 333.417969 740.949219 Z M 333.417969 68.949219 " clip-rule="nonzero"/></clipPath><clipPath id="dea3a21190"><path d="M 333.417969 68.949219 L 460.167969 68.949219 L 460.167969 98 L 333.417969 98 Z M 333.417969 68.949219 " clip-rule="nonzero"/></clipPath><mask id="9479be199e"><g filter="url(#9bba22624f)"><rect x="-81" width="972" fill="#000000" y="-80.999999" height="971.999992" fill-opacity="0.1"/></g></mask><clipPath id="8198f7d957"><path d="M 0.417969 0.949219 L 127.167969 0.949219 L 127.167969 29.441406 L 0.417969 29.441406 Z M 0.417969 0.949219 " clip-rule="nonzero"/></clipPath><clipPath id="36f80d45ce"><rect x="0" width="128" y="0" height="30"/></clipPath><mask id="b1239ba2fc"><g filter="url(#9bba22624f)"><rect x="-81" width="972" fill="#000000" y="-80.999999" height="971.999992" fill-opacity="0.1"/></g></mask><clipPath id="d92681b57f"><path d="M 2 0.519531 L 62 0.519531 L 62 50.679688 L 2 50.679688 Z M 2 0.519531 " clip-rule="nonzero"/></clipPath><clipPath id="3eca240999"><rect x="0" width="63" y="0" height="51"/></clipPath><mask id="518356886f"><g filter="url(#9bba22624f)"><rect x="-81" width="972" fill="#000000" y="-80.999999" height="971.999992" fill-opacity="0.5"/></g></mask><clipPath id="3466c6be9f"><path d="M 0.359375 1 L 21 1 L 21 19.398438 L 0.359375 19.398438 Z M 0.359375 1 " clip-rule="nonzero"/></clipPath><clipPath id="3e31bf6d9f"><rect x="0" width="22" y="0" height="20"/></clipPath></defs><g clip-path="url(#36bcd83833)"><path fill="#535353" d="M 454.746094 741.042969 L 338.886719 741.042969 C 335.898438 741.042969 333.476562 738.625 333.476562 735.636719 L 333.476562 73.503906 C 333.476562 70.945312 335.46875 68.949219 338.03125 68.949219 L 455.882812 68.949219 C 458.304688 68.949219 460.4375 70.945312 460.4375 73.503906 L 460.4375 735.492188 C 460.296875 738.484375 457.875 741.042969 454.746094 741.042969 Z M 454.746094 741.042969 " fill-opacity="1" fill-rule="nonzero"/></g><g clip-path="url(#dea3a21190)"><g mask="url(#9479be199e)"><g transform="matrix(1, 0, 0, 1, 333, 68)"><g clip-path="url(#36f80d45ce)"><g clip-path="url(#8198f7d957)"><path fill="#fffcf0" d="M 5.03125 0.949219 L 122.882812 0.949219 C 125.304688 0.949219 127.4375 2.945312 127.4375 5.503906 L 127.4375 29.132812 L 0.476562 29.132812 L 0.476562 5.503906 C 0.476562 2.945312 2.46875 0.949219 5.03125 0.949219 Z M 5.03125 0.949219 " fill-opacity="1" fill-rule="nonzero"/></g></g></g></g></g><g mask="url(#b1239ba2fc)"><g transform="matrix(1, 0, 0, 1, 334, 101)"><g clip-path="url(#3eca240999)"><g clip-path="url(#d92681b57f)"><path fill="#fffcf0" d="M 61.390625 0.6875 L 2.179688 0.6875 L 2.179688 50.503906 L 61.535156 50.503906 L 61.535156 0.6875 Z M 61.390625 0.6875 " fill-opacity="1" fill-rule="nonzero"/></g></g></g></g><path fill="#282828" d="M 429.125 705.890625 L 386.566406 705.890625 L 386.566406 662.621094 L 429.125 662.621094 Z M 400.660156 691.796875 L 414.890625 691.796875 L 414.890625 676.710938 L 400.660156 676.710938 Z M 400.660156 691.796875 " fill-opacity="1" fill-rule="nonzero"/><path fill="#fffcf0" d="M 429.835938 706.601562 L 385.855469 706.601562 L 385.855469 661.90625 L 429.835938 661.90625 Z M 387.277344 705.175781 L 428.414062 705.175781 L 428.414062 663.332031 L 387.277344 663.332031 Z M 415.601562 692.507812 L 399.945312 692.507812 L 399.945312 676 L 415.601562 676 Z M 401.371094 691.085938 L 414.179688 691.085938 L 414.179688 677.421875 L 401.371094 677.421875 Z M 401.371094 691.085938 " fill-opacity="1" fill-rule="nonzero"/><path fill="#ba68c8" d="M 407.773438 684.253906 L 365.359375 684.253906 L 365.359375 641.839844 L 407.773438 641.839844 Z M 407.773438 684.253906 " fill-opacity="1" fill-rule="nonzero"/><path fill="#fffcf0" d="M 408.488281 684.964844 L 364.648438 684.964844 L 364.648438 641.128906 L 408.488281 641.128906 Z M 366.070312 683.542969 L 407.0625 683.542969 L 407.0625 642.550781 L 366.070312 642.550781 Z M 366.070312 683.542969 " fill-opacity="1" fill-rule="nonzero"/><path fill="#fffcf0" d="M 446.203125 83.042969 L 451.753906 77.492188 L 452.75 78.488281 L 448.195312 83.042969 L 452.609375 87.453125 L 451.613281 88.449219 Z M 444.921875 88.449219 L 445.921875 87.453125 L 441.507812 83.042969 L 446.0625 78.488281 L 445.066406 77.492188 L 439.515625 83.042969 Z M 352.265625 79.339844 L 351.269531 78.34375 L 346.855469 82.613281 L 342.015625 77.917969 L 341.019531 79.058594 L 345.859375 83.753906 L 341.449219 88.023438 L 342.445312 88.878906 L 346.855469 84.609375 L 350.984375 88.59375 L 351.980469 87.597656 L 347.996094 83.753906 Z M 399.945312 725.386719 C 399.945312 726.953125 398.664062 728.09375 397.242188 728.09375 C 395.675781 728.09375 394.539062 726.8125 394.539062 725.386719 C 394.539062 723.964844 395.820312 722.683594 397.242188 722.683594 C 398.664062 722.683594 399.945312 723.964844 399.945312 725.386719 Z M 387.992188 722.683594 C 386.425781 722.683594 385.285156 723.964844 385.285156 725.386719 C 385.285156 726.8125 386.566406 728.09375 387.992188 728.09375 C 389.414062 728.09375 390.695312 726.8125 390.695312 725.386719 C 390.695312 723.964844 389.414062 722.683594 387.992188 722.683594 Z M 405.78125 722.683594 C 404.214844 722.683594 403.078125 723.964844 403.078125 725.386719 C 403.078125 726.8125 404.359375 728.09375 405.78125 728.09375 C 407.347656 728.09375 408.488281 726.8125 408.488281 725.386719 C 408.488281 723.964844 407.347656 722.683594 405.78125 722.683594 Z M 428.414062 652.796875 C 427.132812 654.648438 425.707031 656.640625 424.429688 658.492188 C 423.148438 656.5 422.007812 654.648438 420.726562 652.65625 C 421.722656 652.65625 422.71875 652.65625 423.714844 652.65625 L 423.714844 647.105469 L 418.59375 647.105469 C 418.59375 648.386719 418.59375 649.808594 418.59375 651.089844 C 416.597656 649.667969 414.464844 648.386719 412.472656 646.964844 C 414.464844 645.398438 416.597656 643.972656 418.59375 642.410156 C 418.59375 643.546875 418.59375 644.542969 418.59375 645.683594 L 425.140625 645.683594 L 425.140625 652.65625 C 426.136719 652.796875 427.273438 652.796875 428.414062 652.796875 Z M 428.414062 652.796875 " fill-opacity="1" fill-rule="nonzero"/><path fill="#fffcf0" d="M 391.121094 140.117188 L 391.121094 147.234375 L 384.003906 147.234375 C 386.425781 144.8125 388.84375 142.394531 391.121094 140.117188 Z M 366.78125 128.019531 L 366.78125 132.003906 C 368.0625 132.003906 369.203125 132.003906 370.484375 131.863281 C 369.058594 133.855469 367.496094 135.988281 366.070312 137.980469 C 364.363281 135.988281 362.65625 133.996094 360.949219 132.003906 C 362.226562 132.003906 363.367188 132.003906 364.648438 131.863281 L 364.648438 127.875 L 360.519531 127.875 C 360.519531 129.015625 360.519531 130.152344 360.519531 131.292969 C 358.527344 129.871094 356.394531 128.304688 354.398438 126.878906 C 356.394531 125.171875 358.386719 123.464844 360.378906 121.757812 C 360.378906 123.179688 360.378906 124.460938 360.519531 125.882812 L 364.648438 125.882812 L 364.648438 121.042969 C 363.367188 121.042969 362.226562 121.042969 360.949219 121.1875 C 362.371094 119.195312 363.9375 117.058594 365.359375 115.066406 C 367.066406 117.058594 368.777344 119.050781 370.484375 121.042969 C 369.203125 121.042969 368.0625 121.042969 366.78125 121.1875 L 366.78125 125.882812 L 371.195312 125.882812 C 371.195312 124.460938 371.195312 123.179688 371.054688 121.757812 C 373.046875 123.179688 375.179688 124.746094 377.171875 126.167969 C 375.179688 127.875 373.1875 129.585938 371.195312 131.292969 C 371.195312 130.152344 371.195312 129.015625 371.195312 127.875 L 366.78125 127.875 Z M 366.78125 128.019531 " fill-opacity="1" fill-rule="nonzero"/><path fill="#fffcf0" d="M 453.035156 140.117188 L 453.035156 147.234375 L 445.921875 147.234375 C 448.195312 144.8125 450.617188 142.394531 453.035156 140.117188 Z M 425.140625 133.429688 L 432.113281 133.429688 L 432.113281 135.5625 L 425.140625 135.5625 Z M 417.3125 120.191406 L 417.3125 116.917969 L 422.71875 116.917969 L 422.71875 114.78125 L 415.175781 114.78125 L 415.175781 120.191406 Z M 415.175781 122.609375 L 415.175781 128.160156 L 417.3125 128.160156 L 417.3125 122.609375 Z M 417.3125 130.582031 L 415.175781 130.582031 L 415.175781 135.5625 L 422.71875 135.5625 L 422.71875 133.429688 L 417.3125 133.429688 Z M 425.140625 114.78125 L 425.140625 116.917969 L 432.113281 116.917969 L 432.113281 114.78125 Z M 439.230469 130.582031 L 439.230469 133.429688 L 434.535156 133.429688 L 434.535156 135.5625 L 441.367188 135.5625 L 441.367188 130.582031 Z M 439.230469 120.191406 L 441.367188 120.191406 L 441.367188 114.78125 L 434.535156 114.78125 L 434.535156 116.917969 L 439.230469 116.917969 Z M 439.230469 122.609375 L 439.230469 128.160156 L 441.367188 128.160156 L 441.367188 122.609375 Z M 439.230469 122.609375 " fill-opacity="1" fill-rule="nonzero"/><path fill="#fffcf0" d="M 391.121094 191.5 L 391.121094 198.617188 L 384.003906 198.617188 C 386.425781 196.339844 388.84375 193.917969 391.121094 191.5 Z M 367.636719 173.28125 L 352.835938 166.164062 L 359.238281 181.25 L 352.121094 187.796875 L 353.546875 189.363281 L 359.382812 183.957031 C 359.523438 185.804688 360.664062 187.371094 362.226562 188.082031 L 359.949219 192.070312 L 361.800781 193.066406 L 364.503906 188.367188 C 365.785156 188.226562 367.066406 187.65625 367.78125 186.660156 C 367.78125 186.660156 367.78125 186.660156 367.78125 186.519531 C 367.921875 186.375 368.0625 186.234375 368.0625 186.089844 C 368.0625 186.089844 368.0625 185.949219 368.207031 185.949219 C 368.347656 185.664062 368.492188 185.378906 368.492188 185.09375 C 368.492188 184.953125 368.492188 184.953125 368.632812 184.808594 C 368.632812 184.667969 368.632812 184.523438 368.777344 184.382812 L 378.453125 181.394531 L 379.308594 162.035156 Z M 364.222656 180.824219 C 365.644531 180.824219 366.925781 181.964844 366.925781 183.527344 C 366.925781 183.527344 366.925781 183.527344 366.925781 183.671875 C 366.925781 183.8125 366.925781 183.8125 366.925781 183.957031 C 366.925781 184.382812 366.78125 184.808594 366.355469 185.238281 C 365.503906 186.234375 364.222656 186.234375 364.078125 186.234375 C 362.796875 186.089844 361.660156 184.953125 361.660156 183.527344 C 361.660156 181.964844 362.796875 180.824219 364.222656 180.824219 Z M 376.460938 179.6875 L 368.777344 182.105469 C 368.207031 180.113281 366.355469 178.6875 364.222656 178.6875 C 362.941406 178.6875 361.800781 179.117188 361.089844 179.96875 L 357.105469 170.578125 L 368.0625 175.984375 L 377.171875 167.304688 Z M 376.460938 179.6875 " fill-opacity="1" fill-rule="nonzero"/><path fill="#fffcf0" d="M 453.035156 191.5 L 453.035156 198.617188 L 445.921875 198.617188 C 448.195312 196.339844 450.617188 193.917969 453.035156 191.5 Z M 432.257812 166.449219 L 412.328125 186.375 L 416.597656 190.644531 L 436.527344 170.71875 Z M 433.964844 170.71875 L 429.695312 174.988281 L 427.984375 173.28125 L 432.257812 169.011719 Z M 442.644531 168.726562 C 443.074219 169.722656 443.925781 170.148438 444.210938 170.433594 C 443.644531 170.433594 442.789062 170.433594 441.933594 170.71875 C 440.796875 171.144531 439.941406 171.859375 439.515625 172.285156 C 439.65625 172 440.085938 171.003906 439.65625 169.722656 C 439.230469 168.300781 438.234375 167.730469 437.949219 167.585938 C 438.234375 167.730469 439.089844 168.015625 440.226562 167.730469 C 441.648438 167.445312 442.363281 166.164062 442.503906 166.023438 C 442.363281 166.304688 442.078125 167.445312 442.644531 168.726562 Z M 439.800781 176.554688 C 439.941406 177.265625 440.226562 177.691406 440.367188 177.976562 C 440.226562 177.835938 439.515625 177.410156 438.519531 177.550781 C 437.808594 177.691406 437.238281 178.121094 437.09375 178.261719 C 437.238281 178.121094 437.664062 177.410156 437.664062 176.554688 C 437.664062 175.558594 437.09375 174.988281 436.953125 174.847656 C 437.09375 174.988281 437.664062 175.414062 438.375 175.414062 C 439.371094 175.558594 440.085938 174.847656 440.226562 174.703125 C 440.085938 174.988281 439.65625 175.699219 439.800781 176.554688 Z M 428.980469 164.742188 C 429.265625 165.453125 429.835938 165.738281 429.980469 165.878906 C 429.695312 165.878906 428.980469 165.738281 428.128906 166.164062 C 427.417969 166.589844 427.132812 167.160156 426.988281 167.304688 C 426.988281 167.019531 427.273438 166.449219 426.988281 165.59375 C 426.703125 164.742188 425.992188 164.3125 425.851562 164.171875 C 425.992188 164.3125 426.703125 164.457031 427.273438 164.3125 C 428.269531 164.027344 428.699219 163.175781 428.839844 163.03125 C 428.839844 163.175781 428.554688 163.886719 428.980469 164.742188 Z M 428.980469 164.742188 " fill-opacity="1" fill-rule="nonzero"/><path fill="#fffcf0" d="M 391.121094 244.445312 L 391.121094 251.5625 L 384.003906 251.5625 C 386.425781 249.285156 388.84375 246.867188 391.121094 244.445312 Z M 360.378906 235.621094 L 369.628906 235.621094 L 369.628906 239.039062 L 356.960938 239.039062 L 356.960938 216.976562 L 360.378906 216.976562 Z M 361.230469 221.53125 L 361.230469 224.949219 L 370.625 224.949219 L 370.625 243.734375 L 374.042969 243.734375 L 374.042969 221.53125 Z M 374.894531 235.621094 L 374.894531 239.039062 L 380.589844 239.039062 L 380.589844 235.621094 Z M 350.699219 225.089844 L 356.109375 225.089844 L 356.109375 221.675781 L 350.699219 221.675781 Z M 350.699219 225.089844 " fill-opacity="1" fill-rule="nonzero"/><path fill="#fffcf0" d="M 453.035156 244.445312 L 453.035156 251.5625 L 445.921875 251.5625 C 448.195312 249.285156 450.617188 246.867188 453.035156 244.445312 Z M 439.089844 223.382812 C 440.085938 222.386719 440.226562 220.675781 439.230469 219.679688 L 438.804688 219.253906 C 437.808594 218.257812 436.097656 218.117188 435.101562 219.113281 L 431.542969 222.527344 C 431.542969 222.527344 431.402344 222.671875 431.402344 222.671875 L 428.554688 219.824219 L 424.996094 223.238281 L 427.132812 225.375 C 426.988281 225.515625 426.847656 225.515625 426.703125 225.660156 L 416.882812 235.054688 C 416.171875 235.765625 415.601562 236.761719 415.601562 237.898438 C 415.601562 239.039062 416.03125 240.035156 416.742188 240.746094 C 417.597656 241.601562 418.59375 242.027344 419.589844 242.027344 C 420.585938 242.027344 421.582031 241.601562 422.433594 240.890625 L 432.257812 231.496094 C 432.398438 231.351562 432.539062 231.210938 432.539062 231.066406 L 434.675781 233.203125 L 438.234375 229.785156 L 435.386719 226.941406 C 435.386719 226.941406 435.53125 226.796875 435.53125 226.796875 Z M 430.691406 229.929688 L 420.871094 239.324219 C 420.15625 240.035156 418.875 240.035156 418.164062 239.324219 C 417.878906 238.894531 417.597656 238.46875 417.597656 238.042969 C 417.597656 237.472656 417.878906 237.046875 418.164062 236.761719 L 427.984375 227.367188 C 428.128906 227.226562 428.269531 227.226562 428.414062 227.082031 L 430.832031 229.644531 C 430.976562 229.644531 430.832031 229.785156 430.691406 229.929688 Z M 430.691406 229.929688 " fill-opacity="1" fill-rule="nonzero"/><path fill="#fffcf0" d="M 391.121094 295.972656 L 391.121094 303.089844 L 384.003906 303.089844 C 386.425781 300.8125 388.84375 298.390625 391.121094 295.972656 Z M 365.359375 292.980469 L 362.796875 295.542969 C 361.230469 297.109375 358.8125 297.109375 357.246094 295.542969 L 353.972656 292.269531 C 352.40625 290.703125 352.40625 288.285156 353.972656 286.71875 L 356.535156 284.15625 Z M 375.464844 282.875 L 378.167969 280.171875 C 379.734375 278.605469 379.734375 276.1875 378.167969 274.621094 L 374.894531 271.347656 C 373.332031 269.78125 370.910156 269.78125 369.34375 271.347656 L 366.640625 274.050781 Z M 364.503906 285.152344 L 367.496094 285.152344 L 367.496094 282.164062 L 364.503906 282.164062 Z M 367.496094 282.164062 Z M 364.503906 282.164062 Z M 374.042969 284.300781 L 366.78125 291.558594 L 357.957031 282.734375 L 365.21875 275.476562 Z M 367.636719 285.296875 L 370.625 285.296875 L 370.625 282.164062 L 367.496094 282.164062 L 367.496094 279.035156 L 364.363281 279.035156 L 364.363281 282.023438 L 361.375 282.023438 L 361.375 285.152344 L 364.503906 285.152344 L 364.503906 288.285156 L 367.636719 288.285156 Z M 367.636719 285.296875 " fill-opacity="1" fill-rule="nonzero"/><path fill="#fffcf0" d="M 453.035156 295.972656 L 453.035156 303.089844 L 445.921875 303.089844 C 448.195312 300.8125 450.617188 298.390625 453.035156 295.972656 Z M 439.941406 270.210938 C 440.085938 270.351562 440.085938 270.492188 440.226562 270.492188 C 441.792969 273.484375 431.972656 284.15625 427.984375 288.285156 C 427.84375 287.714844 427.703125 286.433594 426.5625 285.152344 C 425.140625 283.589844 423.429688 283.304688 423.003906 283.304688 C 429.695312 276.613281 437.949219 268.785156 439.941406 270.210938 Z M 422.71875 294.121094 C 423.148438 293.835938 425.425781 292.699219 426.136719 290.277344 C 426.277344 289.707031 426.703125 288.285156 425.992188 286.863281 C 425.425781 285.867188 424.429688 285.152344 423.289062 285.011719 C 421.296875 284.726562 419.445312 286.292969 418.59375 287.859375 C 417.597656 289.707031 418.449219 291.273438 417.3125 292.699219 C 416.597656 293.550781 415.746094 293.835938 415.175781 293.980469 C 415.886719 294.40625 419.445312 295.972656 422.71875 294.121094 Z M 422.71875 294.121094 " fill-opacity="1" fill-rule="nonzero"/><path fill="#fffcf0" d="M 453.035156 348.917969 L 453.035156 356.035156 L 445.921875 356.035156 C 448.195312 353.757812 450.617188 351.339844 453.035156 348.917969 Z M 435.8125 342.65625 C 434.535156 342.65625 434.535156 340.664062 435.8125 340.664062 C 437.09375 340.664062 437.09375 342.65625 435.8125 342.65625 Z M 439.230469 333.691406 C 440.511719 333.691406 440.511719 331.695312 439.230469 331.695312 C 437.949219 331.695312 437.949219 333.691406 439.230469 333.691406 Z M 438.234375 338.527344 C 436.953125 338.527344 436.953125 340.519531 438.234375 340.519531 C 439.515625 340.519531 439.515625 338.527344 438.234375 338.527344 Z M 439.371094 335.398438 C 438.089844 335.398438 438.089844 337.390625 439.371094 337.390625 C 440.652344 337.390625 440.652344 335.398438 439.371094 335.398438 Z M 423.429688 338.101562 C 421.4375 337.816406 419.589844 339.382812 418.734375 340.949219 C 417.738281 342.796875 418.59375 344.363281 417.453125 345.789062 C 416.742188 346.640625 415.886719 346.925781 415.320312 347.070312 C 415.886719 347.351562 419.445312 348.917969 422.71875 347.070312 C 423.148438 346.785156 425.425781 345.644531 426.136719 343.226562 C 426.277344 342.65625 426.703125 341.234375 425.992188 339.808594 C 425.566406 338.957031 424.570312 338.242188 423.429688 338.101562 Z M 440.226562 323.726562 C 440.226562 323.582031 440.085938 323.582031 439.941406 323.441406 C 439.089844 322.871094 437.09375 323.867188 434.535156 325.859375 C 433.679688 325.148438 432.398438 324.582031 430.832031 324.296875 C 426.703125 323.441406 423.574219 325.71875 423.148438 326.144531 C 423.148438 326.003906 422.71875 324.863281 422.578125 324.722656 C 422.433594 324.296875 422.152344 323.726562 422.007812 323.300781 C 420.871094 325.148438 419.875 327.140625 418.734375 328.992188 C 420.726562 329.5625 422.863281 329.988281 424.855469 330.558594 C 424.429688 329.5625 424.144531 328.707031 423.714844 327.710938 C 424.144531 327.425781 426.847656 325.148438 430.691406 325.859375 C 431.6875 326.003906 432.539062 326.429688 433.253906 326.859375 C 430.121094 329.5625 426.277344 333.261719 423.003906 336.535156 C 423.429688 336.535156 425.140625 336.964844 426.5625 338.386719 C 427.703125 339.667969 427.984375 340.949219 427.984375 341.519531 C 431.972656 337.390625 441.792969 326.574219 440.226562 323.726562 Z M 440.226562 323.726562 " fill-opacity="1" fill-rule="nonzero"/><path fill="#fffcf0" d="M 391.121094 348.917969 L 391.121094 356.035156 L 384.003906 356.035156 C 386.425781 353.757812 388.84375 351.339844 391.121094 348.917969 Z M 379.59375 338.957031 C 379.59375 340.519531 379.59375 342.085938 379.59375 343.511719 L 359.808594 343.511719 L 359.808594 338.957031 C 361.375 338.242188 364.078125 337.105469 367.636719 336.820312 L 367.636719 333.546875 C 365.785156 332.691406 364.363281 330.84375 364.363281 328.566406 C 364.363281 325.578125 366.78125 323.15625 369.773438 323.15625 C 372.761719 323.15625 375.179688 325.578125 375.179688 328.566406 C 375.179688 330.84375 373.898438 332.691406 371.90625 333.546875 L 371.90625 336.820312 C 375.324219 337.105469 378.027344 338.242188 379.59375 338.957031 Z M 361.089844 346.785156 L 378.3125 346.785156 L 378.3125 344.363281 L 361.089844 344.363281 Z M 350.699219 327 L 347.425781 327 L 347.425781 323.726562 L 350.699219 323.726562 Z M 353.972656 330.132812 L 350.699219 330.132812 L 350.699219 326.859375 L 353.972656 326.859375 Z M 357.390625 327 L 354.117188 327 L 354.117188 323.726562 L 357.390625 323.726562 Z M 350.699219 333.40625 L 347.425781 333.40625 L 347.425781 330.132812 L 350.699219 330.132812 Z M 357.390625 333.40625 L 354.117188 333.40625 L 354.117188 330.132812 L 357.390625 330.132812 Z M 357.390625 333.40625 " fill-opacity="1" fill-rule="nonzero"/><path fill="#fffcf0" d="M 391.121094 400.445312 L 391.121094 407.558594 L 384.003906 407.558594 C 386.425781 405.28125 388.84375 402.863281 391.121094 400.445312 Z M 364.503906 398.167969 L 378.453125 384.21875 L 370.058594 375.820312 L 351.269531 394.609375 L 356.675781 400.015625 L 379.59375 400.015625 L 379.59375 398.167969 Z M 357.675781 398.167969 L 354.257812 394.75 L 360.09375 388.914062 L 365.503906 394.324219 L 361.660156 398.167969 Z M 357.675781 398.167969 " fill-opacity="1" fill-rule="nonzero"/><path fill="#fffcf0" d="M 391.121094 454.8125 L 391.121094 461.929688 L 384.003906 461.929688 C 386.425781 459.511719 388.84375 457.234375 391.121094 454.8125 Z M 368.632812 435.882812 C 370.339844 438.304688 371.621094 438.445312 372.617188 440.722656 C 372.902344 441.433594 374.613281 445.277344 372.476562 448.695312 C 370.625 451.683594 367.066406 451.96875 366.5 452.109375 C 366.214844 452.109375 361.945312 452.394531 359.523438 449.121094 C 357.390625 445.988281 358.671875 442.429688 358.8125 441.863281 C 359.667969 439.441406 360.949219 439.015625 362.65625 436.597656 C 363.792969 434.886719 365.074219 432.324219 365.503906 428.199219 C 366.070312 431.898438 367.496094 434.320312 368.632812 435.882812 Z M 368.632812 435.882812 " fill-opacity="1" fill-rule="nonzero"/><path fill="#fffcf0" d="M 453.035156 454.8125 L 453.035156 461.929688 L 445.921875 461.929688 C 448.195312 459.511719 450.617188 457.234375 453.035156 454.8125 Z M 439.371094 437.023438 C 439.371094 441.578125 435.671875 445.277344 431.117188 445.277344 C 429.550781 445.277344 428.128906 444.851562 426.847656 444.140625 C 424.144531 446.84375 421.4375 449.546875 418.734375 452.253906 C 417.453125 453.535156 415.460938 451.539062 416.742188 450.257812 C 419.445312 447.554688 422.152344 444.992188 424.710938 442.289062 C 423.574219 440.867188 422.863281 439.015625 422.863281 437.023438 C 422.863281 432.46875 426.5625 428.765625 431.117188 428.765625 C 435.671875 428.765625 439.371094 432.46875 439.371094 437.023438 Z M 439.371094 437.023438 " fill-opacity="1" fill-rule="nonzero"/><path fill="#fffcf0" d="M 391.121094 507.761719 L 391.121094 514.878906 L 384.003906 514.878906 C 386.425781 512.460938 388.84375 510.183594 391.121094 507.761719 Z M 359.097656 490.253906 C 362.371094 488.546875 365.503906 486.839844 368.777344 485.132812 C 370.910156 487.265625 373.1875 489.402344 375.324219 491.394531 C 373.613281 494.242188 372.050781 497.085938 370.339844 499.933594 C 364.789062 502.210938 359.238281 504.347656 353.6875 506.625 C 356.960938 503.632812 360.378906 500.503906 363.652344 497.515625 C 364.363281 497.515625 365.074219 497.515625 365.785156 497.515625 C 365.785156 496.234375 365.929688 494.953125 365.929688 493.671875 C 364.789062 493.671875 363.507812 493.671875 362.371094 493.671875 C 362.371094 494.523438 362.226562 495.378906 362.226562 496.234375 C 359.097656 499.363281 355.964844 502.351562 352.835938 505.484375 C 354.96875 500.503906 356.960938 495.378906 359.097656 490.253906 Z M 377.03125 490.539062 C 378.167969 489.542969 379.167969 488.40625 380.304688 487.410156 C 377.886719 485.132812 375.324219 482.996094 372.902344 480.71875 C 371.90625 481.714844 370.910156 482.710938 369.914062 483.707031 C 372.191406 485.984375 374.613281 488.261719 377.03125 490.539062 Z M 377.03125 490.539062 " fill-opacity="1" fill-rule="nonzero"/><path fill="#fffcf0" d="M 453.035156 507.761719 L 453.035156 514.878906 L 445.921875 514.878906 C 448.195312 512.460938 450.617188 510.183594 453.035156 507.761719 Z M 436.8125 485.558594 L 436.8125 489.117188 C 435.8125 489.117188 434.960938 489.117188 433.964844 489.117188 L 433.964844 485.84375 L 429.410156 485.84375 L 429.410156 502.496094 L 432.683594 502.496094 C 432.683594 503.492188 432.683594 504.347656 432.683594 505.34375 L 423.859375 505.34375 C 423.859375 504.347656 423.859375 503.492188 423.859375 502.496094 L 426.5625 502.496094 L 426.5625 485.84375 L 422.007812 485.84375 L 422.007812 489.542969 C 421.011719 489.542969 420.15625 489.542969 419.160156 489.542969 L 419.160156 485.414062 C 419.160156 484.703125 419.160156 483.851562 419.160156 483.136719 C 424.996094 483.136719 430.976562 483.136719 436.8125 483.136719 C 436.8125 483.992188 436.8125 484.703125 436.8125 485.558594 Z M 436.8125 485.558594 " fill-opacity="1" fill-rule="nonzero"/><g mask="url(#518356886f)"><g transform="matrix(1, 0, 0, 1, 417, 535)"><g clip-path="url(#3e31bf6d9f)"><g clip-path="url(#3466c6be9f)"><path fill="#fffcf0" d="M 20.808594 10.480469 C 20.808594 15.320312 16.253906 19.304688 10.703125 19.304688 C 5.152344 19.304688 0.597656 15.320312 0.597656 10.480469 C 0.597656 5.640625 5.152344 1.65625 10.703125 1.65625 C 16.253906 1.796875 20.808594 5.640625 20.808594 10.480469 Z M 20.808594 10.480469 " fill-opacity="1" fill-rule="nonzero"/></g></g></g></g><path fill="#fffcf0" d="M 453.035156 560.710938 L 453.035156 567.828125 L 445.921875 567.828125 C 448.195312 565.40625 450.617188 562.988281 453.035156 560.710938 Z M 427.703125 556.441406 C 421.011719 556.441406 415.460938 551.601562 415.460938 545.480469 C 415.460938 539.359375 421.011719 534.519531 427.703125 534.519531 C 434.390625 534.519531 439.941406 539.359375 439.941406 545.480469 C 439.941406 551.601562 434.535156 556.441406 427.703125 556.441406 Z M 427.703125 536.796875 C 422.152344 536.796875 417.597656 540.78125 417.597656 545.621094 C 417.597656 550.460938 422.152344 554.445312 427.703125 554.445312 C 433.253906 554.445312 437.808594 550.460938 437.808594 545.621094 C 437.808594 540.78125 433.253906 536.796875 427.703125 536.796875 Z M 427.703125 536.796875 " fill-opacity="1" fill-rule="nonzero"/><path fill="#fffcf0" d="M 391.121094 560.710938 L 391.121094 567.828125 L 384.003906 567.828125 C 386.425781 565.40625 388.84375 562.988281 391.121094 560.710938 Z M 366.355469 548.328125 L 370.484375 557.4375 C 369.628906 557.863281 368.777344 558.289062 367.921875 558.574219 L 363.792969 549.609375 C 362.371094 551.03125 360.949219 552.453125 359.523438 553.878906 C 359.523438 547.757812 359.523438 541.636719 359.523438 535.515625 C 363.9375 539.644531 368.347656 543.914062 372.761719 548.042969 C 370.625 548.042969 368.492188 548.183594 366.355469 548.328125 Z M 366.355469 548.328125 " fill-opacity="1" fill-rule="nonzero"/><path fill="#fffcf0" d="M 391.121094 612.234375 L 391.121094 619.351562 L 384.003906 619.351562 C 386.425781 616.929688 388.84375 614.511719 391.121094 612.234375 Z M 375.75 605.117188 C 375.609375 605.972656 375.464844 607.253906 374.46875 608.675781 C 374.042969 609.246094 373.472656 609.8125 372.761719 610.382812 C 371.335938 611.378906 369.488281 611.664062 367.78125 611.664062 C 366.070312 611.664062 364.503906 611.523438 362.941406 610.953125 C 360.949219 610.242188 359.667969 608.960938 358.527344 607.394531 C 356.960938 604.976562 355.398438 602.554688 353.832031 600.136719 C 353.402344 599.425781 353.546875 598.710938 354.257812 598.429688 C 354.828125 598 355.679688 598.144531 356.25 598.710938 C 357.105469 599.566406 357.816406 600.5625 358.671875 601.417969 C 358.8125 601.558594 358.8125 601.558594 358.953125 601.558594 C 359.382812 601.84375 359.667969 601.984375 359.808594 601.984375 C 360.09375 601.84375 360.09375 601.558594 360.234375 601.273438 C 360.234375 601.273438 360.234375 601.132812 360.234375 600.988281 C 360.234375 596.71875 360.234375 592.59375 360.234375 588.320312 C 360.234375 587.894531 360.378906 587.324219 360.664062 587.183594 C 360.949219 586.898438 361.660156 586.757812 362.085938 586.898438 C 362.65625 587.042969 363.082031 587.46875 363.082031 588.039062 C 363.082031 588.890625 363.082031 589.886719 363.082031 590.742188 C 363.082031 592.449219 363.082031 594.15625 363.082031 596.007812 C 363.082031 596.292969 363.226562 596.71875 363.507812 596.863281 C 363.9375 597.148438 364.503906 596.71875 364.503906 596.152344 C 364.503906 594.441406 364.503906 592.875 364.503906 591.167969 C 364.503906 589.601562 364.503906 588.039062 364.503906 586.472656 C 364.503906 586.042969 364.648438 585.476562 364.933594 585.332031 C 365.21875 585.046875 365.929688 585.046875 366.355469 585.046875 C 366.925781 585.191406 367.210938 585.617188 367.210938 586.1875 C 367.210938 587.894531 367.210938 589.460938 367.210938 591.167969 C 367.210938 592.734375 367.210938 594.300781 367.210938 596.007812 C 367.210938 596.433594 367.210938 597.003906 367.921875 597.003906 C 368.632812 597.003906 368.632812 596.578125 368.632812 596.007812 C 368.632812 593.160156 368.632812 590.457031 368.632812 587.609375 C 368.632812 587.042969 368.777344 586.472656 369.488281 586.328125 C 370.339844 586.042969 371.054688 586.328125 371.195312 587.183594 C 371.335938 587.609375 371.335938 588.179688 371.335938 588.605469 C 371.335938 591.3125 371.335938 594.015625 371.335938 596.71875 C 371.335938 597.148438 371.335938 597.714844 372.050781 597.714844 C 372.761719 597.714844 372.761719 597.148438 372.761719 596.71875 C 372.761719 595.011719 372.761719 593.304688 372.761719 591.453125 C 372.761719 591.027344 372.761719 590.597656 372.902344 590.316406 C 373.046875 589.746094 373.472656 589.460938 374.042969 589.460938 C 374.753906 589.460938 375.179688 589.746094 375.324219 590.316406 C 375.464844 590.882812 375.464844 591.3125 375.464844 591.3125 C 375.324219 593.304688 375.609375 595.4375 375.464844 597.429688 C 375.609375 600.988281 376.035156 601.703125 375.75 605.117188 Z M 375.75 605.117188 " fill-opacity="1" fill-rule="nonzero"/><path fill="#fffcf0" d="M 440.796875 610.8125 L 433.964844 601.84375 C 435.8125 600.136719 436.953125 597.714844 436.8125 595.152344 C 436.8125 590.03125 432.683594 585.902344 427.558594 585.902344 C 422.433594 585.902344 418.308594 590.03125 418.308594 595.152344 C 418.308594 600.277344 422.433594 604.40625 427.558594 604.40625 C 429.265625 604.40625 430.832031 603.980469 432.257812 603.125 L 439.089844 612.089844 C 439.515625 612.375 439.941406 612.375 440.367188 612.089844 C 440.796875 611.664062 440.9375 611.238281 440.796875 610.8125 Z M 427.703125 602.128906 C 423.714844 602.128906 420.585938 598.996094 420.441406 595.011719 C 420.441406 591.027344 423.574219 587.894531 427.558594 587.753906 C 431.542969 587.753906 434.675781 590.882812 434.816406 594.871094 C 434.960938 598.855469 431.6875 602.128906 427.703125 602.128906 Z M 432.257812 592.023438 C 432.257812 592.308594 432.113281 592.734375 431.828125 592.875 C 431.542969 593.019531 431.402344 593.160156 431.117188 593.160156 C 430.832031 593.160156 430.40625 593.019531 430.121094 592.734375 C 429.980469 592.59375 429.550781 592.308594 429.265625 592.164062 C 428.839844 592.023438 428.554688 591.878906 428.128906 591.738281 C 427.84375 591.738281 427.703125 591.738281 427.417969 591.738281 C 427.273438 591.738281 427.132812 591.738281 426.847656 591.738281 C 426.5625 591.738281 426.5625 591.738281 426.421875 591.878906 C 426.277344 591.878906 426.277344 591.878906 426.136719 592.023438 C 425.992188 592.023438 425.992188 592.023438 425.992188 592.164062 C 425.425781 592.59375 424.710938 592.449219 424.285156 591.878906 C 424.144531 591.597656 424 591.3125 424 590.882812 C 424 590.597656 424.285156 590.316406 424.429688 590.171875 C 426.5625 588.75 429.980469 589.175781 431.828125 591.3125 C 432.257812 591.453125 432.257812 591.738281 432.257812 592.023438 Z M 432.257812 592.023438 " fill-opacity="1" fill-rule="nonzero"/><path fill="#fffcf0" d="M 453.035156 400.445312 L 453.035156 407.558594 L 445.921875 407.558594 C 448.195312 405.28125 450.617188 402.863281 453.035156 400.445312 Z M 434.25 382.367188 C 433.535156 381.65625 432.683594 380.800781 431.972656 379.949219 C 431.972656 380.089844 431.972656 380.089844 431.972656 380.089844 C 431.972656 380.660156 431.972656 381.371094 431.972656 381.941406 C 431.972656 382.082031 431.972656 382.082031 432.113281 382.226562 C 432.398438 382.652344 432.539062 383.078125 432.683594 383.503906 C 432.824219 384.785156 431.6875 386.066406 430.40625 386.066406 C 429.550781 386.066406 428.839844 385.78125 428.269531 385.070312 C 427.703125 384.21875 427.703125 383.363281 428.128906 382.507812 C 428.269531 382.226562 428.414062 381.796875 428.414062 381.371094 C 428.414062 379.664062 428.414062 378.097656 428.414062 376.390625 C 428.414062 376.105469 428.269531 376.105469 428.128906 376.246094 C 427.984375 376.390625 427.84375 376.390625 427.703125 376.53125 C 426.421875 377.8125 425.28125 378.949219 424 380.230469 C 422.152344 382.082031 420.300781 384.074219 418.308594 385.925781 C 418.164062 386.066406 418.023438 386.351562 417.738281 386.496094 C 417.597656 386.636719 417.597656 386.921875 417.878906 386.921875 C 418.164062 386.921875 418.449219 387.0625 418.59375 387.0625 C 418.734375 387.0625 418.734375 387.0625 418.875 387.207031 C 421.582031 389.910156 424.144531 392.472656 426.847656 395.175781 C 427.984375 396.316406 429.125 397.453125 430.261719 398.449219 C 430.546875 398.734375 430.832031 398.734375 431.117188 398.449219 C 432.96875 396.601562 434.816406 394.890625 436.667969 393.042969 C 437.808594 391.902344 438.945312 390.621094 440.226562 389.484375 C 440.367188 389.339844 440.511719 389.199219 440.652344 389.058594 C 440.9375 388.773438 440.9375 388.628906 440.652344 388.488281 C 440.367188 388.203125 440.085938 387.917969 439.941406 387.632812 C 438.660156 386.351562 437.238281 384.929688 435.957031 383.648438 C 435.8125 383.503906 435.8125 383.503906 435.8125 383.363281 C 435.8125 381.226562 435.8125 378.953125 435.8125 376.816406 C 435.8125 376.53125 435.8125 376.246094 435.671875 375.960938 C 435.386719 375.394531 434.960938 374.824219 434.390625 374.539062 C 432.683594 373.542969 430.261719 374.679688 429.980469 376.675781 C 429.980469 377.242188 429.980469 377.8125 429.835938 378.382812 C 429.835938 379.804688 429.835938 381.085938 429.835938 382.507812 C 429.835938 382.652344 429.835938 382.792969 429.695312 382.792969 C 428.980469 383.363281 429.125 384.503906 429.980469 384.785156 C 430.546875 384.929688 431.117188 384.785156 431.402344 384.359375 C 431.6875 383.933594 431.6875 383.363281 431.402344 382.9375 C 431.117188 382.652344 431.117188 382.367188 431.117188 382.082031 C 431.117188 380.515625 431.117188 378.949219 431.117188 377.386719 C 431.117188 376.957031 431.117188 376.671875 431.402344 376.246094 C 431.972656 375.25 433.253906 375.109375 434.105469 375.820312 C 434.535156 376.105469 434.675781 376.53125 434.675781 376.957031 C 434.675781 377.527344 434.675781 377.953125 434.675781 378.523438 C 434.675781 379.664062 434.675781 380.945312 434.675781 382.082031 C 434.390625 382.226562 434.390625 382.367188 434.25 382.367188 C 434.390625 382.367188 434.390625 382.367188 434.25 382.367188 Z M 420.585938 394.609375 C 420.585938 394.039062 420.441406 393.46875 420.15625 392.898438 C 419.589844 391.761719 418.875 390.480469 418.164062 389.484375 C 417.878906 389.058594 417.453125 389.058594 417.167969 389.484375 C 416.597656 390.195312 416.171875 391.050781 415.746094 391.761719 C 415.460938 392.332031 415.175781 392.898438 414.890625 393.46875 C 414.320312 394.890625 415.035156 396.601562 416.457031 397.167969 C 417.878906 397.738281 419.589844 397.3125 420.300781 395.890625 C 420.300781 395.460938 420.585938 395.035156 420.585938 394.609375 Z M 420.585938 394.609375 " fill-opacity="1" fill-rule="nonzero"/></svg>